============== For More Exclusives Visit CBTorrents.com ================

Remember to register FREE at [url]http://www.cbtorrents.com/register.php[/url] to avail more exclusives like this one. For time being CBTorrents.com is completely FreeLeech Forum. So hurry up......!!!!


[CENTER]

[IMG]http://img195.imageshack.us/img195/2522/86521126.png[/IMG]

[B][COLOR="navy"]Zindagi Na Milegi Dobara 2011 - 1/3 DVDRip - x264 - ac3 - ESubs - ErSSP (DUS)[/COLOR][/B]
[IMG]http://www.imagehost.co.za/image-AC9C_4E68C1EC.jpg[/IMG]

[B][COLOR="red"]Movie Info[/COLOR][/B]
[/CENTER]

[QUOTE]
[B][U]Storyline[/U][/B]

Mumbai-based Kabir Dhiman, who comes from a wealthy building construction family, proposes to his long-time girlfriend, Natasha, much to the delight of both their respective families. He then gets together with one of two of his close friends, Imran Habib, a writer by profession, and they contact their London-based financial broker friend, Arjun, to remind him of a pact of traveling to Spain. The trio commence their long overdue trip not fully realizing that Arjun has still not forgiven Imran for his break-up with Sunani, while he himself regrets being dumped by Rohini, and must also compete with Imran for the affections of gorgeous Deep Sea Diving Instructor, Laila; Kabir struggles to accept life as Natasha's husband; and Imran must ready himself to meet his biological father, Salman, who had abandoned him at birth.


[B]Director:[/B] Zoya Akhtar
[B]Writers:[/B] Zoya Akhtar (story), Farhan Akhtar (dialogue)
[B]Stars:[/B] Hrithik Roshan, Abhay Deol and Farhan Akhtar 

[B]IMDB:[/B] [url=http://www.imdb.com/title/tt1562872/]Zindagi Na Milegi Dobara (2011) - IMDb[/url]
[/QUOTE]

[CENTER]

[B][COLOR="red"]Rip Info[/COLOR][/B]
[/CENTER]

[CODE]
General
Ripper                                   : ErSSP @ DUS
Source                                   : DusWareHouse!!
Unique ID                                : 218081252680552817727928298098605274837 (0xA410EBE66BC749D295185D6C0EA5B6D5)
Complete name                            : C:\Users\ErSSP\uTDownloads\Zindagi Na Milegi Dobara 2011 - 1-3 DVDRip - x264 - AAC - ESubs - ErSSP (DUS)\VTS_02_1-muxed.mkv
Format                                   : Matroska
Format version                           : Version 2
File size                                : 1.58 GiB
Duration                                 : 2h 34mn
Overall bit rate                         : 1 467 Kbps
Encoded date                             : UTC 2011-09-09 08:16:08
Writing application                      : mkvmerge v4.9.1 ('Ich will') built on Jul 11 2011 23:53:15
Writing library                          : libebml v1.2.1 + libmatroska v1.1.1

Video
ID                                       : 1
Format                                   : AVC
Format/Info                              : Advanced Video Codec
Format profile                           : High@L3.0
Format settings, CABAC                   : Yes
Format settings, ReFrames                : 4 frames
Codec ID                                 : V_MPEG4/ISO/AVC
Duration                                 : 2h 34mn
Bit rate                                 : 1 145 Kbps
Width                                    : 720 pixels
Height                                   : 304 pixels
Display aspect ratio                     : 2.35:1
Frame rate                               : 23.976 fps
Color space                              : YUV
Chroma subsampling                       : 4:2:0
Bit depth                                : 8 bits
Scan type                                : Progressive
Bits/(Pixel*Frame)                       : 0.218
Stream size                              : 1.21 GiB (76%)
Writing library                          : x264 core 116 r2074 2641b9e
Encoding settings                        : cabac=1 / ref=3 / deblock=1:0:0 / analyse=0x3:0x113 / me=hex / subme=7 / psy=1 / psy_rd=1.00:0.00 / mixed_ref=1 / me_range=16 / chroma_me=1 / trellis=1 / 8x8dct=1 / cqm=0 / deadzone=21,11 / fast_pskip=1 / chroma_qp_offset=-2 / threads=3 / sliced_threads=0 / nr=0 / decimate=1 / interlaced=0 / bluray_compat=0 / constrained_intra=0 / bframes=3 / b_pyramid=2 / b_adapt=1 / b_bias=0 / direct=1 / weightb=1 / open_gop=0 / weightp=2 / keyint=250 / keyint_min=23 / scenecut=40 / intra_refresh=0 / rc_lookahead=40 / rc=2pass / mbtree=1 / bitrate=1145 / ratetol=1.0 / qcomp=0.60 / qpmin=0 / qpmax=69 / qpstep=4 / cplxblur=20.0 / qblur=0.5 / ip_ratio=1.40 / aq=1:1.00
Language                                 : English

Audio
ID                                       : 2
Format                                   : AC-3
Format/Info                              : Audio Coding 3
Mode extension                           : CM (complete main)
Codec ID                                 : A_AC3
Duration                                 : 2h 34mn
Bit rate mode                            : Constant
Bit rate                                 : 320 Kbps
Channel(s)                               : 6 channels
Channel positions                        : Front: L C R, Side: L R, LFE
Sampling rate                            : 48.0 KHz
Bit depth                                : 16 bits
Compression mode                         : Lossy
Stream size                              : 354 MiB (22%)
Language                                 : Hindi

Text
ID                                       : 3
Format                                   : UTF-8
Codec ID                                 : S_TEXT/UTF8
Codec ID/Info                            : UTF-8 Plain Text
Language                                 : English

[/CODE]

[CENTER]

[B][COLOR="red"]Screens[/COLOR][/B]
[url=http://www.imagehost.co.za/share-3594_4E69CA67.html][img]http://www.imagehost.co.za/image-3594_4E69CA67.jpg[/img][/url]
[url=http://www.imagehost.co.za/share-E3C0_4E69CA67.html][img]http://www.imagehost.co.za/image-E3C0_4E69CA67.jpg[/img][/url]
[url=http://www.imagehost.co.za/share-C707_4E69CA67.html][img]http://www.imagehost.co.za/image-C707_4E69CA67.jpg[/img][/url]
[url=http://www.imagehost.co.za/share-C5F0_4E69CA67.html][img]http://www.imagehost.co.za/image-C5F0_4E69CA67.jpg[/img][/url]
[url=http://www.imagehost.co.za/share-3FD1_4E69CA67.html][img]http://www.imagehost.co.za/image-3FD1_4E69CA67.jpg[/img][/url]
[url=http://www.imagehost.co.za/share-A824_4E69CAAB.html][img]http://www.imagehost.co.za/image-A824_4E69CAAB.jpg[/img][/url]
[url=http://www.imagehost.co.za/share-0DCB_4E69CAAB.html][img]http://www.imagehost.co.za/image-0DCB_4E69CAAB.jpg[/img][/url]
[url=http://www.imagehost.co.za/share-3C73_4E69CAAB.html][img]http://www.imagehost.co.za/image-3C73_4E69CAAB.jpg[/img][/url]
[url=http://www.imagehost.co.za/share-4ABD_4E69CAAB.html][img]http://www.imagehost.co.za/image-4ABD_4E69CAAB.jpg[/img][/url]
[url=http://www.imagehost.co.za/share-4D9A_4E69CAAB.html][img]http://www.imagehost.co.za/image-4D9A_4E69CAAB.jpg[/img][/url]
[url=http://www.imagehost.co.za/share-9EBC_4E69CADB.html][img]http://www.imagehost.co.za/image-9EBC_4E69CADB.jpg[/img][/url]
[url=http://www.imagehost.co.za/share-B4F2_4E69D1ED.html][img]http://www.imagehost.co.za/image-B4F2_4E69D1ED.jpg[/img][/url]



[B][COLOR="navy"]-- Credits To Team DUS --[/COLOR][/B]
[/CENTER]



Remember to register FREE at [url]http://www.cbtorrents.com/register.php[/url] to avail more exclusives like this one. For time being CBTorrents.com is completely FreeLeech Forum. So hurry up......!!!!

============== For More Exclusives Visit CBTorrents.com ================